<?xml version="1.0" encoding="UTF-8"?>
<svg id="Ebene_1" data-name="Ebene 1" xmlns="http://www.w3.org/2000/svg" viewBox="0 0 246 44.49">
  <defs>
    <style>
      .cls-1 {
        fill: #fffef6;
      }
    </style>
  </defs>
  <g>
    <path class="cls-1" d="M109.32,36.81c-2.34,2.5-5.12,5.23-9.37,5.23-5.77,0-6.75-5.77-5.45-11.92l1.2-5.5h-9.15l-3.32,15.9c-.11.54-.54.87-1.04.82-2.07-.22-4.25-.22-6.26,0-.6.05-.98-.54-.87-1.09l6.21-29.02c.38-2.29,1.58-5.12-.98-5.12-2.4,0-5.28,3.38-4.74,6.81.33,1.91,1.25,3.27,1.25,5.23,0,3.1-1.85,4.63-4.3,4.63-2.72,0-3.92-2.23-3.92-4.79,0-8.93,6.04-15.52,14.43-15.52,3.54,0,8,1.52,6.32,9.04l-1.96,9.31h9.15l3.65-16.77c.11-.54.54-.87,1.03-.82,2.12.22,4.19.22,6.15,0,.6-.05.98.49.87,1.09-1.58,7.57-3.49,15.14-5.06,22.65-.49,2.34-1.09,5.34-1.09,6.81,0,1.31.54,2.29,1.96,2.29.93,0,2.5-.71,3.92-1.69,1.8-1.2,2.5,1.14,1.36,2.45Z"/>
    <path class="cls-1" d="M130.61,26.95c-2.89,2.4-7.35,3.54-10.94,3.65.22,3.98,2.45,6.53,6.42,6.53,1.85,0,3.81-.71,5.61-1.74,1.63-1.09,2.45,1.25,1.14,2.56-2.34,2.5-5.83,3.92-9.31,3.92-2.78,0-5.66-.65-7.84-2.23-2.99-2.12-4.41-5.72-4.36-9.53.05-5.12,2.72-11.05,7.3-14.16,2.45-1.74,5.28-2.61,7.79-2.61,4.63,0,7.68,2.89,7.68,6.59,0,2.5-1.2,5.01-3.49,7.02ZM126.52,16.72c-3.21,0-5.88,5.39-6.64,10.4,4.9-1.42,8-5.44,8.17-8.66,0-1.03-.54-1.74-1.52-1.74Z"/>
    <path class="cls-1" d="M162.4,38.33c-1.96,2.07-4.57,3.59-7.24,3.59-2.72-.05-4.74-1.2-5.39-3.98-1.96,2.83-4.9,3.98-7.3,3.98-5.06,0-7.41-3.54-7.35-6.91.11-6.32,5.39-8.33,9.86-9.53,4.25-1.14,6.75-1.69,7.3-3.32.11-.54.27-1.14.38-1.63.6-2.67-.71-3.87-2.23-3.87-1.96,0-2.94,1.47-3.7,3.76-.65,2.29-2.29,3.21-4.03,3.27-1.85,0-3.16-1.74-2.83-3.59.82-4.19,5.39-6.7,11.38-6.7,3.21,0,10.4,1.36,8.44,10.4l-2.07,9.47c-.65,3.05.22,3.7,1.2,3.7.71,0,1.53-.54,2.4-1.03,1.52-.98,2.29,1.2,1.2,2.4ZM149.93,32.51l.16-.82c.44-1.8.82-3.48,1.14-5.01-.93.82-2.01,1.42-3.16,2.02-3.1,1.8-5.45,3.32-5.45,5.88,0,1.42.87,2.45,2.45,2.45,1.85,0,3.97-1.8,4.85-4.52Z"/>
    <path class="cls-1" d="M165.12,31.36l3.16-16.44c.11-.54.54-.87,1.04-.82,2.01.27,4.03.27,5.99,0,.6-.05.98.54.87,1.09-1.63,7.79-3.65,17.53-3.7,19.06-.05,1.09.33,1.91,1.42,1.91,2.4,0,6.48-5.94,7.51-9.86.93-3.54-1.41-5.17-.92-8.82.33-2.45,2.01-4.14,4.36-4.14,2.67,0,4.19,1.96,4.14,4.41-.05,1.42-.38,2.99-.87,4.36-5.5,14.86-11.54,19.82-17.48,19.82-2.5,0-7.41-.82-5.5-10.56Z"/>
    <path class="cls-1" d="M215.05,38.33c-1.96,2.07-4.57,3.59-7.24,3.59-2.72-.05-4.74-1.2-5.39-3.98-1.96,2.83-4.9,3.98-7.3,3.98-5.06,0-7.41-3.54-7.35-6.91.11-6.32,5.39-8.33,9.86-9.53,4.25-1.14,6.75-1.69,7.3-3.32.11-.54.27-1.14.38-1.63.6-2.67-.71-3.87-2.23-3.87-1.96,0-2.94,1.47-3.7,3.76-.65,2.29-2.29,3.21-4.03,3.27-1.85,0-3.16-1.74-2.83-3.59.82-4.19,5.39-6.7,11.38-6.7,3.21,0,10.4,1.36,8.44,10.4l-2.07,9.47c-.65,3.05.22,3.7,1.2,3.7.71,0,1.52-.54,2.4-1.03,1.52-.98,2.29,1.2,1.2,2.4ZM202.58,32.51l.16-.82c.44-1.8.82-3.48,1.14-5.01-.92.82-2.01,1.42-3.16,2.02-3.1,1.8-5.45,3.32-5.45,5.88,0,1.42.87,2.45,2.45,2.45,1.85,0,3.98-1.8,4.85-4.52Z"/>
    <path class="cls-1" d="M245.49,38.33c-1.96,2.07-4.52,3.59-7.24,3.59-4.63-.05-6.59-3.65-4.9-10.94,1.91-8.06,3.97-12.14.71-12.14-1.31,0-4.08,1.69-6.21,6.75l-3.16,14.92c-.11.54-.54.87-1.04.82-2.01-.22-3.92-.22-5.93,0-.6.05-.93-.54-.87-1.09l5.01-25.32c.11-.54.54-.87,1.03-.82,2.12.22,4.19.22,6.26,0,.6-.05.98.49.87,1.09l-.76,3.65c2.34-3.21,5.61-5.45,9.26-5.45,2.67,0,7.41.93,5.23,8.93l-3,10.94c-.82,3,.22,3.7,1.14,3.7.71,0,1.52-.54,2.4-1.03,1.52-.98,2.29,1.2,1.2,2.4Z"/>
  </g>
  <path class="cls-1" d="M58.74,0h-30.9C12.46,0,0,12.46,0,27.83v14.8c0,1.02.83,1.86,1.86,1.86h30.9c15.37,0,27.83-12.46,27.83-27.83V1.86c0-1.02-.83-1.86-1.86-1.86ZM37.01,37.03c-2.3.3-7.07.47-12.05-1.38-2.86-1.07-5.2-2.59-8.64-2.07-1.01.15-2.75.41-4.4,1.66-2.44,1.85-3.2,4.72-4.46,4.52-.39-.06-.64-.4-.78-.6-.51-.73-4.33-10.43,1.76-20.63,2.37-3.97,5.03-5.98,6.83-7.05,2.51-1.49,6.17-2.81,7.04-1.73.71.88-.96,2.26-1.36,6.13-.19,1.85-.11,4.78,1.01,5.15.58.19,1.25-.34,1.36-.47.75-.86.93-2.78,1.32-4.67,1.09-5.22,3.36-7.51,4.18-8.2,2.09-1.76,5.73-3.39,7.27-2.13,1.91,1.56-1.64,5.65.18,11.5.25.81,1.52,4.87,5.1,6.56,2.97,1.4,6.06.88,6.06.88,1.97-.34,3.63-1.29,4.42-.52.36.36.35.91.35,1.13-.05,2.58-5.88,10.7-15.18,11.91ZM48.74,18.52c-3.66,0-6.63-2.97-6.63-6.63s2.97-6.63,6.63-6.63,6.63,2.97,6.63,6.63-2.97,6.63-6.63,6.63Z"/>
</svg>
